<mxfile host="app.diagrams.net" modified="2024-06-04T00:34:18.904Z" agent="Mozilla/5.0 (Windows NT 10.0; Win64; x64; rv:126.0) Gecko/20100101 Firefox/126.0" etag="kpo8_1ccRzx_hcuHwgpN" version="24.4.13" type="github">
  <diagram name="Page-1" id="OvC9usSgJgSxYnSor2t8">
    <mxGraphModel dx="3693" dy="2069" grid="0" gridSize="10" guides="1" tooltips="1" connect="1" arrows="1" fold="1" page="1" pageScale="1" pageWidth="850" pageHeight="1100" background="#ffffff" math="0" shadow="0">
      <root>
        <mxCell id="0" />
        <mxCell id="1" parent="0" />
        <mxCell id="UpopN2e4FFocGODJ9OR7-45" value="" style="rounded=0;whiteSpace=wrap;html=1;fillColor=#dae8fc;strokeColor=none;" vertex="1" parent="1">
          <mxGeometry x="-469" y="320" width="160" height="120" as="geometry" />
        </mxCell>
        <mxCell id="eVf1ZyIzbr-brX2mgaoc-1" value="招聘中" style="rounded=0;whiteSpace=wrap;html=1;fillColor=#B3B3B3;strokeColor=#314354;fontColor=#ffffff;" parent="1" vertex="1">
          <mxGeometry x="-93" y="200" width="320" height="60" as="geometry" />
        </mxCell>
        <mxCell id="eVf1ZyIzbr-brX2mgaoc-4" value="招聘后" style="rounded=0;whiteSpace=wrap;html=1;fillColor=#B3B3B3;strokeColor=#314354;fontColor=#ffffff;" parent="1" vertex="1">
          <mxGeometry x="246" y="200" width="280" height="60" as="geometry" />
        </mxCell>
        <mxCell id="eVf1ZyIzbr-brX2mgaoc-5" value="云计算" style="rounded=0;whiteSpace=wrap;html=1;fillColor=#dae8fc;strokeColor=#6c8ebf;" parent="1" vertex="1">
          <mxGeometry x="-469" y="570" width="315" height="30" as="geometry" />
        </mxCell>
        <mxCell id="eVf1ZyIzbr-brX2mgaoc-6" value="AI" style="rounded=0;whiteSpace=wrap;html=1;fillColor=#dae8fc;strokeColor=#6c8ebf;" parent="1" vertex="1">
          <mxGeometry x="-149" y="570" width="375" height="30" as="geometry" />
        </mxCell>
        <mxCell id="eVf1ZyIzbr-brX2mgaoc-7" value="大数据" style="rounded=0;whiteSpace=wrap;html=1;fillColor=#dae8fc;strokeColor=#6c8ebf;" parent="1" vertex="1">
          <mxGeometry x="236" y="570" width="280" height="30" as="geometry" />
        </mxCell>
        <mxCell id="eVf1ZyIzbr-brX2mgaoc-8" value="数氡烘字化助力整体招聘流程" style="rounded=0;whiteSpace=wrap;html=1;fillColor=#ffe6cc;strokeColor=#d79b00;" parent="1" vertex="1">
          <mxGeometry x="-469" y="610" width="985" height="40" as="geometry" />
        </mxCell>
        <mxCell id="eVf1ZyIzbr-brX2mgaoc-9" value="即时响应" style="rounded=0;whiteSpace=wrap;html=1;fillColor=#f5f5f5;fontColor=#333333;strokeColor=#666666;" parent="1" vertex="1">
          <mxGeometry x="-469" y="490" width="175" height="60" as="geometry" />
        </mxCell>
        <mxCell id="eVf1ZyIzbr-brX2mgaoc-10" value="精准匹配" style="rounded=0;whiteSpace=wrap;html=1;fillColor=#f5f5f5;fontColor=#333333;strokeColor=#666666;" parent="1" vertex="1">
          <mxGeometry x="-289" y="490" width="225" height="25" as="geometry" />
        </mxCell>
        <mxCell id="eVf1ZyIzbr-brX2mgaoc-11" value="智能筛选" style="rounded=0;whiteSpace=wrap;html=1;fillColor=#f5f5f5;fontColor=#333333;strokeColor=#666666;" parent="1" vertex="1">
          <mxGeometry x="-289" y="525" width="225" height="25" as="geometry" />
        </mxCell>
        <mxCell id="eVf1ZyIzbr-brX2mgaoc-13" value="高效面试" style="rounded=0;whiteSpace=wrap;html=1;fillColor=#f5f5f5;fontColor=#333333;strokeColor=#666666;" parent="1" vertex="1">
          <mxGeometry x="-59" y="490" width="285" height="60" as="geometry" />
        </mxCell>
        <mxCell id="eVf1ZyIzbr-brX2mgaoc-15" value="人才测评" style="rounded=0;whiteSpace=wrap;html=1;fillColor=#f5f5f5;fontColor=#333333;strokeColor=#666666;" parent="1" vertex="1">
          <mxGeometry x="236" y="490" width="280" height="60" as="geometry" />
        </mxCell>
        <mxCell id="eVf1ZyIzbr-brX2mgaoc-16" value="结构化信息" style="rounded=0;whiteSpace=wrap;html=1;" parent="1" vertex="1">
          <mxGeometry x="-289" y="330" width="20" height="100" as="geometry" />
        </mxCell>
        <mxCell id="eVf1ZyIzbr-brX2mgaoc-18" value="灵活就业者" style="rounded=1;whiteSpace=wrap;html=1;dashed=1;fillColor=#f5f5f5;fontColor=#333333;strokeColor=#666666;gradientColor=none;horizontal=1;textDirection=vertical-lr;" parent="1" vertex="1">
          <mxGeometry x="-559" y="322.5" width="50" height="117.5" as="geometry" />
        </mxCell>
        <mxCell id="eVf1ZyIzbr-brX2mgaoc-19" value="投递简历" style="rounded=0;whiteSpace=wrap;html=1;" parent="1" vertex="1">
          <mxGeometry x="-409" y="330.37" width="90" height="20" as="geometry" />
        </mxCell>
        <mxCell id="eVf1ZyIzbr-brX2mgaoc-20" value="发布岗位" style="rounded=0;whiteSpace=wrap;html=1;" parent="1" vertex="1">
          <mxGeometry x="-409" y="410.25" width="90" height="19.75" as="geometry" />
        </mxCell>
        <mxCell id="eVf1ZyIzbr-brX2mgaoc-22" value="历史招聘数据" style="rounded=0;whiteSpace=wrap;html=1;fillColor=default;" parent="1" vertex="1">
          <mxGeometry x="-449" y="330" width="20" height="100" as="geometry" />
        </mxCell>
        <mxCell id="eVf1ZyIzbr-brX2mgaoc-23" value="人才画像" style="rounded=0;whiteSpace=wrap;html=1;" parent="1" vertex="1">
          <mxGeometry x="-239" y="330" width="80" height="20" as="geometry" />
        </mxCell>
        <mxCell id="eVf1ZyIzbr-brX2mgaoc-24" value="岗位画像" style="rounded=0;whiteSpace=wrap;html=1;" parent="1" vertex="1">
          <mxGeometry x="-239" y="410.25" width="80" height="20" as="geometry" />
        </mxCell>
        <mxCell id="eVf1ZyIzbr-brX2mgaoc-27" value="简历筛选" style="rounded=0;whiteSpace=wrap;html=1;" parent="1" vertex="1">
          <mxGeometry x="-89" y="330" width="20" height="100" as="geometry" />
        </mxCell>
        <mxCell id="eVf1ZyIzbr-brX2mgaoc-29" value="视频面试" style="rounded=0;whiteSpace=wrap;html=1;" parent="1" vertex="1">
          <mxGeometry x="-29" y="330.37" width="20" height="100" as="geometry" />
        </mxCell>
        <mxCell id="eVf1ZyIzbr-brX2mgaoc-30" value="发放offer" style="rounded=0;whiteSpace=wrap;html=1;" parent="1" vertex="1">
          <mxGeometry x="116" y="331.25" width="25" height="100" as="geometry" />
        </mxCell>
        <mxCell id="eVf1ZyIzbr-brX2mgaoc-34" value="个人信息" style="rounded=0;whiteSpace=wrap;html=1;" parent="1" vertex="1">
          <mxGeometry x="312.38" y="330.3699999999999" width="120" height="20" as="geometry" />
        </mxCell>
        <mxCell id="eVf1ZyIzbr-brX2mgaoc-35" value="工作能力" style="rounded=0;whiteSpace=wrap;html=1;" parent="1" vertex="1">
          <mxGeometry x="312.38" y="372.37" width="120" height="20" as="geometry" />
        </mxCell>
        <mxCell id="eVf1ZyIzbr-brX2mgaoc-36" value="绩效盘点" style="rounded=0;whiteSpace=wrap;html=1;" parent="1" vertex="1">
          <mxGeometry x="312.38" y="410.3699999999999" width="120" height="20" as="geometry" />
        </mxCell>
        <mxCell id="eVf1ZyIzbr-brX2mgaoc-37" value="评测结果" style="rounded=0;whiteSpace=wrap;html=1;" parent="1" vertex="1">
          <mxGeometry x="482.38" y="330" width="20" height="100" as="geometry" />
        </mxCell>
        <mxCell id="UpopN2e4FFocGODJ9OR7-4" value="" style="endArrow=none;html=1;rounded=0;exitX=1;exitY=0.5;exitDx=0;exitDy=0;" edge="1" parent="1" source="eVf1ZyIzbr-brX2mgaoc-22">
          <mxGeometry width="50" height="50" relative="1" as="geometry">
            <mxPoint x="-449" y="420" as="sourcePoint" />
            <mxPoint x="-369" y="380" as="targetPoint" />
          </mxGeometry>
        </mxCell>
        <mxCell id="UpopN2e4FFocGODJ9OR7-5" value="" style="endArrow=classic;startArrow=classic;html=1;rounded=0;entryX=0.447;entryY=1.037;entryDx=0;entryDy=0;entryPerimeter=0;exitX=0.441;exitY=-0.019;exitDx=0;exitDy=0;exitPerimeter=0;" edge="1" parent="1" source="eVf1ZyIzbr-brX2mgaoc-20" target="eVf1ZyIzbr-brX2mgaoc-19">
          <mxGeometry width="50" height="50" relative="1" as="geometry">
            <mxPoint x="-364" y="407.28125" as="sourcePoint" />
            <mxPoint x="-363.82" y="350.3699999999999" as="targetPoint" />
            <Array as="points">
              <mxPoint x="-369" y="380" />
            </Array>
          </mxGeometry>
        </mxCell>
        <mxCell id="UpopN2e4FFocGODJ9OR7-13" value="" style="endArrow=classic;html=1;rounded=0;entryX=-0.03;entryY=0.099;entryDx=0;entryDy=0;entryPerimeter=0;exitX=1.007;exitY=0.47;exitDx=0;exitDy=0;exitPerimeter=0;" edge="1" parent="1" source="eVf1ZyIzbr-brX2mgaoc-19" target="eVf1ZyIzbr-brX2mgaoc-16">
          <mxGeometry width="50" height="50" relative="1" as="geometry">
            <mxPoint x="-316" y="338" as="sourcePoint" />
            <mxPoint x="-289" y="380" as="targetPoint" />
          </mxGeometry>
        </mxCell>
        <mxCell id="UpopN2e4FFocGODJ9OR7-15" value="" style="endArrow=classic;html=1;rounded=0;exitX=1;exitY=0.5;exitDx=0;exitDy=0;entryX=-0.01;entryY=0.897;entryDx=0;entryDy=0;entryPerimeter=0;" edge="1" parent="1" source="eVf1ZyIzbr-brX2mgaoc-20" target="eVf1ZyIzbr-brX2mgaoc-16">
          <mxGeometry width="50" height="50" relative="1" as="geometry">
            <mxPoint x="-319" y="430" as="sourcePoint" />
            <mxPoint x="-269" y="380" as="targetPoint" />
          </mxGeometry>
        </mxCell>
        <mxCell id="UpopN2e4FFocGODJ9OR7-16" value="" style="endArrow=classic;html=1;rounded=0;entryX=0;entryY=0.5;entryDx=0;entryDy=0;exitX=1.024;exitY=0.1;exitDx=0;exitDy=0;exitPerimeter=0;" edge="1" parent="1" source="eVf1ZyIzbr-brX2mgaoc-16" target="eVf1ZyIzbr-brX2mgaoc-23">
          <mxGeometry width="50" height="50" relative="1" as="geometry">
            <mxPoint x="-269" y="440" as="sourcePoint" />
            <mxPoint x="-229" y="390" as="targetPoint" />
          </mxGeometry>
        </mxCell>
        <mxCell id="UpopN2e4FFocGODJ9OR7-17" value="" style="endArrow=classic;html=1;rounded=0;exitX=1.03;exitY=0.893;exitDx=0;exitDy=0;exitPerimeter=0;entryX=-0.002;entryY=0.448;entryDx=0;entryDy=0;entryPerimeter=0;" edge="1" parent="1" source="eVf1ZyIzbr-brX2mgaoc-16" target="eVf1ZyIzbr-brX2mgaoc-24">
          <mxGeometry width="50" height="50" relative="1" as="geometry">
            <mxPoint x="-279" y="410" as="sourcePoint" />
            <mxPoint x="-229" y="360" as="targetPoint" />
          </mxGeometry>
        </mxCell>
        <mxCell id="UpopN2e4FFocGODJ9OR7-18" value="" style="endArrow=none;html=1;rounded=0;" edge="1" parent="1">
          <mxGeometry width="50" height="50" relative="1" as="geometry">
            <mxPoint x="-159" y="340.34000000000003" as="sourcePoint" />
            <mxPoint x="-119" y="340.34000000000003" as="targetPoint" />
          </mxGeometry>
        </mxCell>
        <mxCell id="UpopN2e4FFocGODJ9OR7-19" value="" style="endArrow=none;html=1;rounded=0;" edge="1" parent="1">
          <mxGeometry width="50" height="50" relative="1" as="geometry">
            <mxPoint x="-159" y="420.23" as="sourcePoint" />
            <mxPoint x="-119" y="420.23" as="targetPoint" />
          </mxGeometry>
        </mxCell>
        <mxCell id="UpopN2e4FFocGODJ9OR7-20" value="" style="endArrow=none;html=1;rounded=0;" edge="1" parent="1">
          <mxGeometry width="50" height="50" relative="1" as="geometry">
            <mxPoint x="-119" y="421" as="sourcePoint" />
            <mxPoint x="-119" y="340" as="targetPoint" />
          </mxGeometry>
        </mxCell>
        <mxCell id="UpopN2e4FFocGODJ9OR7-21" value="" style="endArrow=classic;html=1;rounded=0;entryX=0;entryY=0.5;entryDx=0;entryDy=0;" edge="1" parent="1" target="eVf1ZyIzbr-brX2mgaoc-27">
          <mxGeometry width="50" height="50" relative="1" as="geometry">
            <mxPoint x="-119" y="380" as="sourcePoint" />
            <mxPoint x="-69" y="332.5" as="targetPoint" />
          </mxGeometry>
        </mxCell>
        <mxCell id="UpopN2e4FFocGODJ9OR7-27" value="" style="endArrow=classic;html=1;rounded=0;entryX=0;entryY=0.5;entryDx=0;entryDy=0;exitX=1;exitY=0.5;exitDx=0;exitDy=0;" edge="1" parent="1" source="eVf1ZyIzbr-brX2mgaoc-27" target="eVf1ZyIzbr-brX2mgaoc-29">
          <mxGeometry width="50" height="50" relative="1" as="geometry">
            <mxPoint x="-99" y="432.5" as="sourcePoint" />
            <mxPoint x="-49" y="382.5" as="targetPoint" />
          </mxGeometry>
        </mxCell>
        <mxCell id="UpopN2e4FFocGODJ9OR7-28" value="" style="endArrow=classic;html=1;rounded=0;entryX=-0.028;entryY=0.507;entryDx=0;entryDy=0;entryPerimeter=0;exitX=0.98;exitY=0.528;exitDx=0;exitDy=0;exitPerimeter=0;" edge="1" parent="1" source="eVf1ZyIzbr-brX2mgaoc-33" target="eVf1ZyIzbr-brX2mgaoc-35">
          <mxGeometry relative="1" as="geometry">
            <mxPoint x="221" y="381.76" as="sourcePoint" />
            <mxPoint x="321" y="381.76" as="targetPoint" />
          </mxGeometry>
        </mxCell>
        <mxCell id="UpopN2e4FFocGODJ9OR7-29" value="测评" style="edgeLabel;resizable=0;html=1;;align=center;verticalAlign=middle;fontColor=#ff8000;" connectable="0" vertex="1" parent="UpopN2e4FFocGODJ9OR7-28">
          <mxGeometry relative="1" as="geometry" />
        </mxCell>
        <mxCell id="UpopN2e4FFocGODJ9OR7-32" value="" style="edgeStyle=segmentEdgeStyle;endArrow=classic;html=1;curved=0;rounded=0;endSize=8;startSize=8;entryX=0;entryY=0.5;entryDx=0;entryDy=0;" edge="1" parent="1">
          <mxGeometry width="50" height="50" relative="1" as="geometry">
            <mxPoint x="282.38" y="380.3699999999999" as="sourcePoint" />
            <mxPoint x="312.38000000000045" y="422.3615492957747" as="targetPoint" />
            <Array as="points">
              <mxPoint x="282.38000000000045" y="422.3615492957747" />
            </Array>
          </mxGeometry>
        </mxCell>
        <mxCell id="UpopN2e4FFocGODJ9OR7-36" value="" style="shape=partialRectangle;whiteSpace=wrap;html=1;bottom=1;right=1;left=1;top=0;fillColor=none;routingCenterX=-0.5;direction=north;" vertex="1" parent="1">
          <mxGeometry x="432.38" y="347.37" width="30" height="70" as="geometry" />
        </mxCell>
        <mxCell id="UpopN2e4FFocGODJ9OR7-37" value="" style="endArrow=classic;html=1;rounded=0;exitX=0.549;exitY=0.06;exitDx=0;exitDy=0;exitPerimeter=0;" edge="1" parent="1">
          <mxGeometry width="50" height="50" relative="1" as="geometry">
            <mxPoint x="432.38000000000017" y="383.1500000000001" as="sourcePoint" />
            <mxPoint x="482.38" y="382.3699999999999" as="targetPoint" />
          </mxGeometry>
        </mxCell>
        <mxCell id="UpopN2e4FFocGODJ9OR7-38" value="用工企业" style="rounded=0;whiteSpace=wrap;html=1;horizontal=1;textDirection=vertical-lr;fillColor=#f5f5f5;fontColor=#333333;strokeColor=#666666;" vertex="1" parent="1">
          <mxGeometry x="475" y="650" width="50" height="100" as="geometry" />
        </mxCell>
        <mxCell id="UpopN2e4FFocGODJ9OR7-39" value="" style="endArrow=classic;html=1;rounded=0;exitX=1;exitY=0.5;exitDx=0;exitDy=0;" edge="1" parent="1" source="eVf1ZyIzbr-brX2mgaoc-31">
          <mxGeometry relative="1" as="geometry">
            <mxPoint x="81" y="380.90999999999985" as="sourcePoint" />
            <mxPoint x="116" y="381" as="targetPoint" />
          </mxGeometry>
        </mxCell>
        <mxCell id="UpopN2e4FFocGODJ9OR7-47" value="" style="endArrow=classic;html=1;rounded=0;exitX=1;exitY=0.5;exitDx=0;exitDy=0;" edge="1" parent="1" source="eVf1ZyIzbr-brX2mgaoc-29" target="eVf1ZyIzbr-brX2mgaoc-31">
          <mxGeometry relative="1" as="geometry">
            <mxPoint x="-9" y="380" as="sourcePoint" />
            <mxPoint x="81" y="381.83000000000015" as="targetPoint" />
          </mxGeometry>
        </mxCell>
        <mxCell id="UpopN2e4FFocGODJ9OR7-48" value="AI解析" style="edgeLabel;resizable=0;html=1;;align=center;verticalAlign=middle;rotation=0;container=0;comic=0;fontColor=#ff8040;" connectable="0" vertex="1" parent="UpopN2e4FFocGODJ9OR7-47">
          <mxGeometry relative="1" as="geometry">
            <mxPoint x="-3" y="-8" as="offset" />
          </mxGeometry>
        </mxCell>
        <mxCell id="eVf1ZyIzbr-brX2mgaoc-31" value="候选人评选" style="rounded=0;whiteSpace=wrap;html=1;" parent="1" vertex="1">
          <mxGeometry x="46" y="331.25" width="20" height="100" as="geometry" />
        </mxCell>
        <mxCell id="UpopN2e4FFocGODJ9OR7-50" value="" style="endArrow=classic;html=1;rounded=0;entryX=0;entryY=0.5;entryDx=0;entryDy=0;exitX=1;exitY=0.5;exitDx=0;exitDy=0;" edge="1" parent="1" source="eVf1ZyIzbr-brX2mgaoc-30" target="eVf1ZyIzbr-brX2mgaoc-33">
          <mxGeometry relative="1" as="geometry">
            <mxPoint x="156" y="380" as="sourcePoint" />
            <mxPoint x="261" y="382.8499999999999" as="targetPoint" />
          </mxGeometry>
        </mxCell>
        <mxCell id="eVf1ZyIzbr-brX2mgaoc-33" value="入职" style="rounded=0;whiteSpace=wrap;html=1;" parent="1" vertex="1">
          <mxGeometry x="176" y="331.25" width="20" height="100" as="geometry" />
        </mxCell>
        <mxCell id="UpopN2e4FFocGODJ9OR7-51" value="" style="edgeStyle=segmentEdgeStyle;endArrow=classic;html=1;curved=0;rounded=0;endSize=8;startSize=8;entryX=0;entryY=0.5;entryDx=0;entryDy=0;" edge="1" parent="1">
          <mxGeometry width="50" height="50" relative="1" as="geometry">
            <mxPoint x="282.38" y="382.37322580645105" as="sourcePoint" />
            <mxPoint x="312.38000000000045" y="340.38167651067647" as="targetPoint" />
            <Array as="points">
              <mxPoint x="282.38000000000045" y="340.38167651067647" />
            </Array>
          </mxGeometry>
        </mxCell>
        <mxCell id="UpopN2e4FFocGODJ9OR7-53" value="" style="endArrow=classic;html=1;rounded=0;entryX=0.531;entryY=0.001;entryDx=0;entryDy=0;entryPerimeter=0;" edge="1" parent="1" target="UpopN2e4FFocGODJ9OR7-45">
          <mxGeometry width="50" height="50" relative="1" as="geometry">
            <mxPoint x="566" y="330" as="sourcePoint" />
            <mxPoint x="-454" y="280" as="targetPoint" />
            <Array as="points">
              <mxPoint x="566" y="280" />
              <mxPoint x="-254" y="280" />
              <mxPoint x="-384" y="280" />
            </Array>
          </mxGeometry>
        </mxCell>
        <mxCell id="UpopN2e4FFocGODJ9OR7-57" value="" style="endArrow=classic;html=1;rounded=0;entryX=0.656;entryY=0.083;entryDx=0;entryDy=0;entryPerimeter=0;" edge="1" parent="1" target="UpopN2e4FFocGODJ9OR7-45">
          <mxGeometry width="50" height="50" relative="1" as="geometry">
            <mxPoint x="-534" y="322.5" as="sourcePoint" />
            <mxPoint x="-354" y="300" as="targetPoint" />
            <Array as="points">
              <mxPoint x="-534" y="300" />
              <mxPoint x="-364" y="300" />
            </Array>
          </mxGeometry>
        </mxCell>
        <mxCell id="UpopN2e4FFocGODJ9OR7-59" value="求职需求" style="edgeLabel;html=1;align=center;verticalAlign=middle;resizable=0;points=[];" vertex="1" connectable="0" parent="UpopN2e4FFocGODJ9OR7-57">
          <mxGeometry x="-0.1589" y="1" relative="1" as="geometry">
            <mxPoint as="offset" />
          </mxGeometry>
        </mxCell>
        <mxCell id="UpopN2e4FFocGODJ9OR7-61" value="供需分析" style="text;html=1;align=center;verticalAlign=middle;resizable=0;points=[];autosize=1;strokeColor=none;fillColor=none;textDirection=vertical-lr;fontColor=#ff8000;horizontal=1;fontSize=12;fontStyle=1" vertex="1" parent="1">
          <mxGeometry x="-449" y="377" width="70" height="30" as="geometry" />
        </mxCell>
        <mxCell id="UpopN2e4FFocGODJ9OR7-58" value="" style="endArrow=classic;html=1;rounded=0;entryX=0.273;entryY=1.042;entryDx=0;entryDy=0;entryPerimeter=0;" edge="1" parent="1" target="eVf1ZyIzbr-brX2mgaoc-20">
          <mxGeometry width="50" height="50" relative="1" as="geometry">
            <mxPoint x="566" y="430.37" as="sourcePoint" />
            <mxPoint x="-384" y="440.37" as="targetPoint" />
            <Array as="points">
              <mxPoint x="566" y="460" />
              <mxPoint x="-384" y="460" />
            </Array>
          </mxGeometry>
        </mxCell>
        <mxCell id="UpopN2e4FFocGODJ9OR7-60" value="用工需求" style="edgeLabel;html=1;align=center;verticalAlign=middle;resizable=0;points=[];fontSize=18;" vertex="1" connectable="0" parent="UpopN2e4FFocGODJ9OR7-58">
          <mxGeometry x="-0.8321" y="2" relative="1" as="geometry">
            <mxPoint x="-37" as="offset" />
          </mxGeometry>
        </mxCell>
        <mxCell id="UpopN2e4FFocGODJ9OR7-68" value="人岗匹配" style="text;html=1;align=center;verticalAlign=middle;resizable=0;points=[];autosize=1;strokeColor=none;fillColor=none;textDirection=vertical-lr;fontColor=#ff8000;horizontal=1;fontSize=12;fontStyle=1" vertex="1" parent="1">
          <mxGeometry x="-164" y="380.37" width="70" height="30" as="geometry" />
        </mxCell>
        <mxCell id="UpopN2e4FFocGODJ9OR7-72" value="招聘前" style="rounded=0;whiteSpace=wrap;html=1;fillColor=#1ba1e2;strokeColor=#006EAF;fontColor=#ffffff;" vertex="1" parent="1">
          <mxGeometry x="-469" y="200" width="360" height="60" as="geometry" />
        </mxCell>
      </root>
    </mxGraphModel>
  </diagram>
</mxfile>
